<mxfile host="app.diagrams.net" modified="2021-10-11T07:33:30.200Z" agent="5.0 (X11)" etag="k2-J_kdXP9d8N-OihRyA" version="15.5.0" type="github">
  <diagram id="R2lEEEUBdFMjLlhIrx00" name="Page-1">
    <mxGraphModel dx="530" dy="319" grid="1" gridSize="10" guides="1" tooltips="1" connect="1" arrows="1" fold="1" page="0" pageScale="1" pageWidth="850" pageHeight="1100" math="0" shadow="0" extFonts="Permanent Marker^https://fonts.googleapis.com/css?family=Permanent+Marker">
      <root>
        <mxCell id="0" />
        <mxCell id="1" parent="0" />
        <mxCell id="on0v9irm9_DBQPnfS0qo-2" value="Doctor" style="whiteSpace=wrap;html=1;align=center;" vertex="1" parent="1">
          <mxGeometry y="200" width="100" height="40" as="geometry" />
        </mxCell>
        <mxCell id="on0v9irm9_DBQPnfS0qo-3" value="patient" style="whiteSpace=wrap;html=1;align=center;" vertex="1" parent="1">
          <mxGeometry x="190" y="100" width="100" height="20" as="geometry" />
        </mxCell>
        <mxCell id="on0v9irm9_DBQPnfS0qo-4" value="test" style="whiteSpace=wrap;html=1;align=center;" vertex="1" parent="1">
          <mxGeometry x="400" y="210" width="110" height="40" as="geometry" />
        </mxCell>
        <mxCell id="on0v9irm9_DBQPnfS0qo-5" value="Dr-Patient" style="shape=rhombus;perimeter=rhombusPerimeter;whiteSpace=wrap;html=1;align=center;" vertex="1" parent="1">
          <mxGeometry x="30" y="110" width="80" height="60" as="geometry" />
        </mxCell>
        <mxCell id="on0v9irm9_DBQPnfS0qo-11" style="edgeStyle=none;rounded=0;orthogonalLoop=1;jettySize=auto;html=1;exitX=0;exitY=0.5;exitDx=0;exitDy=0;entryX=1;entryY=0.75;entryDx=0;entryDy=0;" edge="1" parent="1" source="on0v9irm9_DBQPnfS0qo-6" target="on0v9irm9_DBQPnfS0qo-3">
          <mxGeometry relative="1" as="geometry" />
        </mxCell>
        <mxCell id="on0v9irm9_DBQPnfS0qo-6" value="test-log" style="shape=rhombus;perimeter=rhombusPerimeter;whiteSpace=wrap;html=1;align=center;" vertex="1" parent="1">
          <mxGeometry x="385" y="110" width="80" height="60" as="geometry" />
        </mxCell>
        <mxCell id="on0v9irm9_DBQPnfS0qo-9" value="performed-by" style="shape=rhombus;perimeter=rhombusPerimeter;whiteSpace=wrap;html=1;align=center;" vertex="1" parent="1">
          <mxGeometry x="180" y="200" width="90" height="40" as="geometry" />
        </mxCell>
        <mxCell id="on0v9irm9_DBQPnfS0qo-10" style="edgeStyle=none;rounded=0;orthogonalLoop=1;jettySize=auto;html=1;exitX=0.5;exitY=0;exitDx=0;exitDy=0;" edge="1" parent="1" source="on0v9irm9_DBQPnfS0qo-9" target="on0v9irm9_DBQPnfS0qo-9">
          <mxGeometry relative="1" as="geometry" />
        </mxCell>
        <mxCell id="on0v9irm9_DBQPnfS0qo-16" value="" style="endArrow=none;html=1;rounded=0;" edge="1" parent="1">
          <mxGeometry relative="1" as="geometry">
            <mxPoint x="100" y="219.5" as="sourcePoint" />
            <mxPoint x="180" y="220" as="targetPoint" />
            <Array as="points" />
          </mxGeometry>
        </mxCell>
        <mxCell id="on0v9irm9_DBQPnfS0qo-17" value="" style="endArrow=none;html=1;rounded=0;" edge="1" parent="1">
          <mxGeometry relative="1" as="geometry">
            <mxPoint x="270" y="220" as="sourcePoint" />
            <mxPoint x="400" y="220" as="targetPoint" />
          </mxGeometry>
        </mxCell>
        <mxCell id="on0v9irm9_DBQPnfS0qo-23" value="" style="endArrow=none;html=1;rounded=0;exitX=0.5;exitY=1;exitDx=0;exitDy=0;entryX=0.25;entryY=0;entryDx=0;entryDy=0;" edge="1" parent="1" source="on0v9irm9_DBQPnfS0qo-6" target="on0v9irm9_DBQPnfS0qo-4">
          <mxGeometry relative="1" as="geometry">
            <mxPoint x="270" y="190" as="sourcePoint" />
            <mxPoint x="430" y="190" as="targetPoint" />
          </mxGeometry>
        </mxCell>
        <mxCell id="on0v9irm9_DBQPnfS0qo-24" value="" style="endArrow=none;html=1;rounded=0;entryX=0.69;entryY=0.05;entryDx=0;entryDy=0;entryPerimeter=0;" edge="1" parent="1" target="on0v9irm9_DBQPnfS0qo-2">
          <mxGeometry relative="1" as="geometry">
            <mxPoint x="70" y="170" as="sourcePoint" />
            <mxPoint x="230" y="170" as="targetPoint" />
          </mxGeometry>
        </mxCell>
        <mxCell id="on0v9irm9_DBQPnfS0qo-25" value="" style="endArrow=none;html=1;rounded=0;entryX=0;entryY=0.75;entryDx=0;entryDy=0;" edge="1" parent="1" source="on0v9irm9_DBQPnfS0qo-5" target="on0v9irm9_DBQPnfS0qo-3">
          <mxGeometry relative="1" as="geometry">
            <mxPoint x="110" y="140" as="sourcePoint" />
            <mxPoint x="270" y="140" as="targetPoint" />
          </mxGeometry>
        </mxCell>
        <mxCell id="on0v9irm9_DBQPnfS0qo-27" value="" style="endArrow=none;html=1;rounded=0;entryX=0.25;entryY=1;entryDx=0;entryDy=0;" edge="1" parent="1" source="on0v9irm9_DBQPnfS0qo-69" target="on0v9irm9_DBQPnfS0qo-2">
          <mxGeometry relative="1" as="geometry">
            <mxPoint x="20" y="260" as="sourcePoint" />
            <mxPoint x="180" y="260" as="targetPoint" />
          </mxGeometry>
        </mxCell>
        <mxCell id="on0v9irm9_DBQPnfS0qo-30" value="" style="endArrow=none;html=1;rounded=0;entryX=0.5;entryY=1;entryDx=0;entryDy=0;exitX=0.5;exitY=0;exitDx=0;exitDy=0;" edge="1" parent="1" source="on0v9irm9_DBQPnfS0qo-67" target="on0v9irm9_DBQPnfS0qo-2">
          <mxGeometry relative="1" as="geometry">
            <mxPoint x="70" y="270" as="sourcePoint" />
            <mxPoint x="230" y="270" as="targetPoint" />
          </mxGeometry>
        </mxCell>
        <mxCell id="on0v9irm9_DBQPnfS0qo-33" value="" style="endArrow=none;html=1;rounded=0;" edge="1" parent="1" target="on0v9irm9_DBQPnfS0qo-64">
          <mxGeometry relative="1" as="geometry">
            <mxPoint x="80" y="240" as="sourcePoint" />
            <mxPoint x="129.03999999999996" y="283" as="targetPoint" />
          </mxGeometry>
        </mxCell>
        <mxCell id="on0v9irm9_DBQPnfS0qo-35" value="" style="endArrow=none;html=1;rounded=0;" edge="1" parent="1">
          <mxGeometry relative="1" as="geometry">
            <mxPoint x="100" y="230" as="sourcePoint" />
            <mxPoint x="220" y="300" as="targetPoint" />
          </mxGeometry>
        </mxCell>
        <mxCell id="on0v9irm9_DBQPnfS0qo-38" style="edgeStyle=none;rounded=0;orthogonalLoop=1;jettySize=auto;html=1;exitX=1;exitY=0.5;exitDx=0;exitDy=0;" edge="1" parent="1">
          <mxGeometry relative="1" as="geometry">
            <mxPoint x="290" y="310" as="sourcePoint" />
            <mxPoint x="290" y="310" as="targetPoint" />
          </mxGeometry>
        </mxCell>
        <mxCell id="on0v9irm9_DBQPnfS0qo-42" value="test_name" style="ellipse;whiteSpace=wrap;html=1;align=center;" vertex="1" parent="1">
          <mxGeometry x="570" y="340" width="100" height="40" as="geometry" />
        </mxCell>
        <mxCell id="on0v9irm9_DBQPnfS0qo-43" value="test_id" style="ellipse;whiteSpace=wrap;html=1;align=center;" vertex="1" parent="1">
          <mxGeometry x="450" y="340" width="100" height="40" as="geometry" />
        </mxCell>
        <mxCell id="on0v9irm9_DBQPnfS0qo-44" value="" style="endArrow=none;html=1;rounded=0;entryX=0;entryY=0.5;entryDx=0;entryDy=0;" edge="1" parent="1">
          <mxGeometry relative="1" as="geometry">
            <mxPoint x="510" y="210" as="sourcePoint" />
            <mxPoint x="560" y="190" as="targetPoint" />
          </mxGeometry>
        </mxCell>
        <mxCell id="on0v9irm9_DBQPnfS0qo-47" value="" style="endArrow=none;html=1;rounded=0;entryX=0;entryY=0.5;entryDx=0;entryDy=0;entryPerimeter=0;" edge="1" parent="1" target="on0v9irm9_DBQPnfS0qo-61">
          <mxGeometry relative="1" as="geometry">
            <mxPoint x="510" y="230" as="sourcePoint" />
            <mxPoint x="620" y="290" as="targetPoint" />
          </mxGeometry>
        </mxCell>
        <mxCell id="on0v9irm9_DBQPnfS0qo-48" value="" style="endArrow=none;html=1;rounded=0;entryX=0.75;entryY=1;entryDx=0;entryDy=0;exitX=0;exitY=0;exitDx=0;exitDy=0;" edge="1" parent="1" source="on0v9irm9_DBQPnfS0qo-42" target="on0v9irm9_DBQPnfS0qo-4">
          <mxGeometry relative="1" as="geometry">
            <mxPoint x="280" y="270" as="sourcePoint" />
            <mxPoint x="440" y="270" as="targetPoint" />
          </mxGeometry>
        </mxCell>
        <mxCell id="on0v9irm9_DBQPnfS0qo-50" value="" style="endArrow=none;html=1;rounded=0;entryX=0.42;entryY=0;entryDx=0;entryDy=0;entryPerimeter=0;" edge="1" parent="1" target="on0v9irm9_DBQPnfS0qo-43">
          <mxGeometry relative="1" as="geometry">
            <mxPoint x="420" y="250" as="sourcePoint" />
            <mxPoint x="570" y="240" as="targetPoint" />
            <Array as="points">
              <mxPoint x="420" y="250" />
            </Array>
          </mxGeometry>
        </mxCell>
        <mxCell id="on0v9irm9_DBQPnfS0qo-51" value="Attribute" style="ellipse;whiteSpace=wrap;html=1;align=center;fontStyle=4;" vertex="1" parent="1">
          <mxGeometry x="560" y="170" width="100" height="40" as="geometry" />
        </mxCell>
        <mxCell id="on0v9irm9_DBQPnfS0qo-53" value="&lt;div&gt;result&lt;/div&gt;" style="ellipse;whiteSpace=wrap;html=1;align=center;" vertex="1" parent="1">
          <mxGeometry x="560" y="170" width="100" height="40" as="geometry" />
        </mxCell>
        <mxCell id="on0v9irm9_DBQPnfS0qo-56" value="time" style="ellipse;whiteSpace=wrap;html=1;align=center;" vertex="1" parent="1">
          <mxGeometry x="610" y="220" width="100" height="40" as="geometry" />
        </mxCell>
        <mxCell id="on0v9irm9_DBQPnfS0qo-58" value="" style="endArrow=none;html=1;rounded=0;exitX=1;exitY=0.5;exitDx=0;exitDy=0;" edge="1" parent="1" source="on0v9irm9_DBQPnfS0qo-4">
          <mxGeometry relative="1" as="geometry">
            <mxPoint x="450" y="239" as="sourcePoint" />
            <mxPoint x="610" y="239" as="targetPoint" />
          </mxGeometry>
        </mxCell>
        <mxCell id="on0v9irm9_DBQPnfS0qo-61" value="date" style="ellipse;whiteSpace=wrap;html=1;align=center;" vertex="1" parent="1">
          <mxGeometry x="570" y="270" width="100" height="40" as="geometry" />
        </mxCell>
        <mxCell id="on0v9irm9_DBQPnfS0qo-63" value="doctor_id" style="ellipse;whiteSpace=wrap;html=1;align=center;" vertex="1" parent="1">
          <mxGeometry x="220" y="280" width="100" height="40" as="geometry" />
        </mxCell>
        <mxCell id="on0v9irm9_DBQPnfS0qo-64" value="specialization" style="ellipse;whiteSpace=wrap;html=1;align=center;" vertex="1" parent="1">
          <mxGeometry x="110" y="290" width="100" height="40" as="geometry" />
        </mxCell>
        <mxCell id="on0v9irm9_DBQPnfS0qo-67" value="name" style="ellipse;whiteSpace=wrap;html=1;align=center;" vertex="1" parent="1">
          <mxGeometry x="60" y="340" width="100" height="40" as="geometry" />
        </mxCell>
        <mxCell id="on0v9irm9_DBQPnfS0qo-69" value="dss#" style="ellipse;whiteSpace=wrap;html=1;align=center;" vertex="1" parent="1">
          <mxGeometry x="10" y="270" width="60" height="40" as="geometry" />
        </mxCell>
        <mxCell id="on0v9irm9_DBQPnfS0qo-70" value="date _checked_out" style="ellipse;whiteSpace=wrap;html=1;align=center;" vertex="1" parent="1">
          <mxGeometry x="405" y="20" width="100" height="40" as="geometry" />
        </mxCell>
        <mxCell id="on0v9irm9_DBQPnfS0qo-71" value="insurance" style="ellipse;whiteSpace=wrap;html=1;align=center;" vertex="1" parent="1">
          <mxGeometry x="305" y="10" width="100" height="40" as="geometry" />
        </mxCell>
        <mxCell id="on0v9irm9_DBQPnfS0qo-72" value="date admitted" style="ellipse;whiteSpace=wrap;html=1;align=center;" vertex="1" parent="1">
          <mxGeometry x="175" y="10" width="100" height="40" as="geometry" />
        </mxCell>
        <mxCell id="on0v9irm9_DBQPnfS0qo-73" value="name" style="ellipse;whiteSpace=wrap;html=1;align=center;" vertex="1" parent="1">
          <mxGeometry x="60" y="10" width="100" height="40" as="geometry" />
        </mxCell>
        <mxCell id="on0v9irm9_DBQPnfS0qo-74" value="ss#" style="ellipse;whiteSpace=wrap;html=1;align=center;" vertex="1" parent="1">
          <mxGeometry x="80" y="60" width="60" height="40" as="geometry" />
        </mxCell>
        <mxCell id="on0v9irm9_DBQPnfS0qo-75" value="" style="endArrow=none;html=1;rounded=0;exitX=0.5;exitY=1;exitDx=0;exitDy=0;" edge="1" parent="1" source="on0v9irm9_DBQPnfS0qo-74">
          <mxGeometry relative="1" as="geometry">
            <mxPoint x="30" y="109" as="sourcePoint" />
            <mxPoint x="190" y="109" as="targetPoint" />
          </mxGeometry>
        </mxCell>
        <mxCell id="on0v9irm9_DBQPnfS0qo-76" value="" style="endArrow=none;html=1;rounded=0;entryX=0;entryY=0;entryDx=0;entryDy=0;" edge="1" parent="1" target="on0v9irm9_DBQPnfS0qo-3">
          <mxGeometry relative="1" as="geometry">
            <mxPoint x="130" y="50" as="sourcePoint" />
            <mxPoint x="290" y="50" as="targetPoint" />
          </mxGeometry>
        </mxCell>
        <mxCell id="on0v9irm9_DBQPnfS0qo-77" value="" style="endArrow=none;html=1;rounded=0;entryX=0.42;entryY=0.05;entryDx=0;entryDy=0;entryPerimeter=0;" edge="1" parent="1" target="on0v9irm9_DBQPnfS0qo-3">
          <mxGeometry relative="1" as="geometry">
            <mxPoint x="220" y="50" as="sourcePoint" />
            <mxPoint x="380" y="50" as="targetPoint" />
          </mxGeometry>
        </mxCell>
        <mxCell id="on0v9irm9_DBQPnfS0qo-78" value="" style="endArrow=none;html=1;rounded=0;entryX=0;entryY=1;entryDx=0;entryDy=0;" edge="1" parent="1" target="on0v9irm9_DBQPnfS0qo-71">
          <mxGeometry relative="1" as="geometry">
            <mxPoint x="260" y="100" as="sourcePoint" />
            <mxPoint x="420" y="100" as="targetPoint" />
          </mxGeometry>
        </mxCell>
        <mxCell id="on0v9irm9_DBQPnfS0qo-84" value="" style="endArrow=none;html=1;rounded=0;entryX=0.38;entryY=0.975;entryDx=0;entryDy=0;entryPerimeter=0;" edge="1" parent="1" target="on0v9irm9_DBQPnfS0qo-70">
          <mxGeometry relative="1" as="geometry">
            <mxPoint x="290" y="100" as="sourcePoint" />
            <mxPoint x="450" y="100" as="targetPoint" />
          </mxGeometry>
        </mxCell>
      </root>
    </mxGraphModel>
  </diagram>
</mxfile>
